<?xml version="1.0" encoding="utf-8"?>
<!-- Generator: Adobe Illustrator 25.0.1, SVG Export Plug-In . SVG Version: 6.00 Build 0)  -->
<svg version="1.1" id="Layer_1" xmlns="http://www.w3.org/2000/svg" xmlns:xlink="http://www.w3.org/1999/xlink" x="0px" y="0px"
	 viewBox="0 0 354.54 227.68" style="enable-background:new 0 0 354.54 227.68;" xml:space="preserve">
<style type="text/css">
	.st0{fill:#FFFFFF;}
	.st1{opacity:0.41;fill:#01A0C6;}
	.st2{fill:#4FA0CA;stroke:#FFFFFF;stroke-width:1.9644;stroke-miterlimit:10;}
	.st3{fill:none;}
	.st4{opacity:0.7;fill:#FEFEFE;}
	.st5{fill:#070707;}
	.st6{fill:#F8656F;}
	.st7{fill:#EAEDED;}
	.st8{fill:#D1DDE0;}
	.st9{fill:#F84756;}
	.st10{fill:#7A717A;}
	.st11{fill:#695F68;}
	.st12{fill:#D1DEE1;}
	.st13{fill:#E9ECED;}
	.st14{fill:#EAECED;}
	.st15{fill:#E9ECEC;}
	.st16{fill:#D0DDE0;}
	.st17{fill:#C4D2D7;}
	.st18{fill:#070706;}
</style>
<text transform="matrix(1 0 0 1 -546.0334 -67.6475)" style="font-family:'CenturyStd-Ultra'; font-size:60.9619px;">PLUMBERS</text>
<text transform="matrix(1 0 0 1 -198.8606 -172.7304)" style="font-family:'CenturyStd-Ultra'; font-size:60.9619px;">PLUMBERS</text>
<text transform="matrix(1 0 0 1 -545.9114 23.0562)" style="font-family:'Gretaros-Regular'; font-size:60.9619px;">PLUMBERS</text>
<text transform="matrix(1 0 0 1 -545.9114 106.6725)" style="font-family:'Superclarendon-Regular'; font-size:60.9619px;">PLUMBERS</text>
<path id="SVGID_x5F_1_x5F__1_" class="st3" d="M785.41-73.76c0,61.53-49.88,111.4-111.4,111.4s-111.4-49.88-111.4-111.4
	s49.88-111.4,111.4-111.4S785.41-135.29,785.41-73.76z"/>
<text><textPath  xlink:href="#SVGID_x5F_1_x5F__1_" startOffset="-54.9235%">
<tspan  style="font-family:'Superclarendon-Regular'; font-size:36px;">PLUMBERS</tspan></textPath>
</text>
<g>
	<path d="M112-452.78c-7.94-4.18-15.94-7.96-23.5-12.48c-9.57-5.73-17.99-12.94-23.42-22.93c-1.71-3.15-2.95-6.69-3.7-10.2
		c-1.68-7.88,2.25-13.66,10.24-14.91c4.06-0.63,8.28-0.29,12.43-0.33c1.08-0.01,2.16,0.18,3.63,0.31
		c-2.92-3.75-5.67-6.99-8.09-10.47c-9.9-14.27-15.58-29.86-14.29-47.51c0.11-1.45,0.35-2.89,0.65-4.31
		c2.12-10.11,9.79-14.1,18.96-9.21c4.6,2.46,8.78,5.99,12.58,9.62c8.89,8.5,17.3,17.5,26.17,26.02
		c12.1,11.61,26.13,20.68,40.09,29.84c14.73,9.67,29.35,19.53,42.18,31.75c13.88,13.23,21.41,29.78,25.32,48.21
		c2.36,11.11,3.28,22.34,0.51,33.47c-1.11,4.46-2.9,9.03-5.48,12.8c-8.77,12.82-24.52,12.68-32.26-0.76
		c-3.98-6.92-9.59-10.34-16.33-12.98c-15.49-6.07-31.66-9.55-47.95-12.59c-7.73-1.44-15.23-3.62-21.55-8.6
		c-8.45-6.66-8.52-14.85-0.24-21.71C109.31-450.89,110.78-451.88,112-452.78z M122.84-454.13c-1.62,0.84-2.87,1.34-3.94,2.08
		c-3.75,2.59-7.68,4.99-11.07,7.99c-2.84,2.52-2.96,5.61-0.89,8.79c1.17,1.79,2.65,3.71,4.47,4.67c4.38,2.32,8.88,4.73,13.63,5.98
		c10.36,2.71,21.04,4.26,31.35,7.15c10.08,2.83,19.94,6.53,29.75,10.24c4.32,1.63,7.77,4.6,9.75,9.18c1,2.31,2.83,4.4,4.67,6.18
		c5.87,5.64,13.19,6.02,18.99,0.34c3.08-3.02,5.61-7.04,7.2-11.07c3.59-9.14,3.28-18.83,1.96-28.39
		c-3.01-21.68-11.1-40.88-27.72-55.89c-13.21-11.93-28.17-21.45-42.72-31.55c-11.54-8.01-23.22-15.97-33.89-25.07
		c-10.52-8.97-19.73-19.45-29.76-29.02c-3.58-3.42-7.54-6.67-11.87-9c-6.34-3.41-11.24-0.78-12.92,6.15
		c-0.37,1.51-0.61,3.07-0.72,4.62c-0.94,13.31,2.48,25.59,8.88,37.15c6.1,11.02,14.12,20.32,24.56,27.56
		c-2.97-0.55-5.82-1.39-8.72-1.99c-7.04-1.46-14.09-3.06-21.35-1.58c-6.04,1.23-8.59,4.9-7.3,10.82c0.55,2.52,1.37,5.05,2.52,7.34
		c4.31,8.63,11.22,14.94,18.96,20.4C97.56-463.4,109.53-457.98,122.84-454.13z"/>
	<path class="st0" d="M122.84-454.13c-13.31-3.84-25.28-9.27-36.16-16.94c-7.74-5.46-14.66-11.76-18.96-20.4
		c-1.15-2.3-1.96-4.83-2.52-7.34c-1.3-5.92,1.26-9.59,7.3-10.82c7.26-1.48,14.31,0.11,21.35,1.58c2.9,0.6,5.75,1.44,8.72,1.99
		c-10.44-7.24-18.46-16.54-24.56-27.56c-6.4-11.56-9.82-23.84-8.88-37.15c0.11-1.55,0.35-3.11,0.72-4.62
		c1.68-6.93,6.58-9.56,12.92-6.15c4.33,2.33,8.29,5.58,11.87,9c10.02,9.57,19.24,20.06,29.76,29.02
		c10.67,9.1,22.34,17.06,33.89,25.07c14.56,10.1,29.51,19.62,42.72,31.55c16.62,15.01,24.71,34.21,27.72,55.89
		c1.33,9.56,1.64,19.24-1.96,28.39c-1.58,4.03-4.11,8.05-7.2,11.07c-5.79,5.68-13.12,5.3-18.99-0.34c-1.85-1.78-3.67-3.87-4.67-6.18
		c-1.98-4.57-5.44-7.54-9.75-9.18c-9.81-3.71-19.66-7.41-29.75-10.24c-10.31-2.89-20.98-4.44-31.35-7.15
		c-4.75-1.24-9.25-3.66-13.63-5.98c-1.82-0.96-3.31-2.88-4.47-4.67c-2.07-3.17-1.95-6.26,0.89-8.79c3.39-3.01,7.32-5.4,11.07-7.99
		C119.97-452.8,121.22-453.29,122.84-454.13z"/>
</g>
<g>
	<path d="M56.35-397.93c8.28,6.86,8.21,15.05-0.24,21.71c-6.32,4.99-13.83,7.16-21.55,8.6c-16.29,3.03-32.46,6.52-47.95,12.59
		c-6.74,2.64-12.34,6.07-16.33,12.98c-7.74,13.44-23.49,13.58-32.26,0.76c-2.58-3.77-4.37-8.34-5.48-12.8
		c-2.76-11.13-1.85-22.36,0.51-33.47c3.92-18.43,11.44-34.98,25.32-48.21c12.83-12.22,27.44-22.08,42.18-31.75
		c13.96-9.16,27.99-18.23,40.09-29.84c8.88-8.52,17.28-17.52,26.17-26.02c3.81-3.64,7.98-7.17,12.58-9.62
		c9.17-4.89,16.84-0.89,18.96,9.21c0.3,1.42,0.54,2.87,0.65,4.31c1.29,17.65-4.39,33.23-14.29,47.51
		c-2.41,3.48-5.17,6.71-8.09,10.47c1.46-0.13,2.55-0.32,3.63-0.31c4.15,0.04,8.37-0.3,12.43,0.33c7.99,1.24,11.92,7.02,10.24,14.91
		c-0.75,3.51-1.99,7.05-3.7,10.2c-5.43,9.99-13.85,17.2-23.42,22.93c-7.55,4.52-15.56,8.3-23.5,12.48
		C53.52-400.04,54.99-399.06,56.35-397.93z M77.62-419.23c7.74-5.46,14.66-11.76,18.96-20.4c1.15-2.3,1.96-4.83,2.52-7.34
		c1.3-5.92-1.26-9.59-7.3-10.82c-7.26-1.48-14.31,0.11-21.35,1.58c-2.9,0.6-5.75,1.44-8.72,1.99c10.44-7.24,18.46-16.54,24.56-27.56
		c6.4-11.56,9.82-23.84,8.88-37.15c-0.11-1.55-0.35-3.11-0.72-4.62c-1.68-6.93-6.58-9.56-12.92-6.15c-4.33,2.33-8.29,5.58-11.87,9
		c-10.02,9.57-19.24,20.06-29.76,29.02c-10.67,9.1-22.34,17.06-33.89,25.07c-14.56,10.1-29.51,19.62-42.72,31.55
		c-16.62,15.01-24.71,34.21-27.72,55.89c-1.33,9.56-1.64,19.24,1.96,28.39c1.58,4.03,4.11,8.05,7.2,11.07
		c5.79,5.68,13.12,5.3,18.99-0.34c1.85-1.78,3.67-3.87,4.67-6.18c1.98-4.57,5.44-7.54,9.75-9.18c9.81-3.71,19.66-7.41,29.75-10.24
		c10.31-2.89,20.98-4.44,31.35-7.15c4.75-1.24,9.25-3.66,13.63-5.98c1.82-0.96,3.31-2.88,4.47-4.67c2.07-3.17,1.95-6.26-0.89-8.79
		c-3.39-3.01-7.32-5.4-11.07-7.99c-1.07-0.74-2.31-1.23-3.94-2.08C54.77-406.14,66.74-411.56,77.62-419.23z"/>
	<path class="st0" d="M41.46-402.3c13.31-3.84,25.28-9.27,36.16-16.94c7.74-5.46,14.66-11.76,18.96-20.4
		c1.15-2.3,1.96-4.83,2.52-7.34c1.3-5.92-1.26-9.59-7.3-10.82c-7.26-1.48-14.31,0.11-21.35,1.58c-2.9,0.6-5.75,1.44-8.72,1.99
		c10.44-7.24,18.46-16.54,24.56-27.56c6.4-11.56,9.82-23.84,8.88-37.15c-0.11-1.55-0.35-3.11-0.72-4.62
		c-1.68-6.93-6.58-9.56-12.92-6.15c-4.33,2.33-8.29,5.58-11.87,9c-10.02,9.57-19.24,20.06-29.76,29.02
		c-10.67,9.1-22.34,17.06-33.89,25.07c-14.56,10.1-29.51,19.62-42.72,31.55c-16.62,15.01-24.71,34.21-27.72,55.89
		c-1.33,9.56-1.64,19.24,1.96,28.39c1.58,4.03,4.11,8.05,7.2,11.07c5.79,5.68,13.12,5.3,18.99-0.34c1.85-1.78,3.67-3.87,4.67-6.18
		c1.98-4.57,5.44-7.54,9.75-9.18c9.81-3.71,19.66-7.41,29.75-10.24c10.31-2.89,20.98-4.44,31.35-7.15
		c4.75-1.24,9.25-3.66,13.63-5.98c1.82-0.96,3.31-2.88,4.47-4.67c2.07-3.17,1.95-6.26-0.89-8.79c-3.39-3.01-7.32-5.4-11.07-7.99
		C44.33-400.96,43.08-401.45,41.46-402.3z"/>
</g>
<g>
	<path class="st1" d="M65.03,101.18l-50.61-7.9c-4.99-0.78-8.44-5.5-7.66-10.5l0.51-3.27c0.78-4.99,5.5-8.44,10.5-7.66l50.61,7.9
		c4.99,0.78,8.44,5.5,7.66,10.5l-0.51,3.27C74.75,98.51,70.03,101.96,65.03,101.18z"/>
	<path class="st1" d="M68.17,126.7H31.66c-4.39,0-7.98-3.59-7.98-7.98v-5.73c0-4.39,3.59-7.98,7.98-7.98h36.51
		c4.39,0,7.98,3.59,7.98,7.98v5.73C76.15,123.1,72.56,126.7,68.17,126.7z"/>
	<path class="st1" d="M75.31,152.06l-22.08,4.1c-3.55,0.66-7-1.71-7.66-5.26l-1.56-8.4c-0.66-3.55,1.71-7,5.26-7.66l22.08-4.1
		c3.55-0.66,7,1.71,7.66,5.26l1.56,8.4C81.24,147.95,78.87,151.4,75.31,152.06z"/>
	<path class="st1" d="M86.93,176.92l-12.69,3.56c-3.45,0.97-7.05-1.06-8.02-4.51l-2.34-8.35c-0.97-3.45,1.06-7.05,4.51-8.02
		l12.69-3.56c3.45-0.97,7.05,1.06,8.02,4.51l2.34,8.35C92.4,172.35,90.37,175.96,86.93,176.92z"/>
</g>
<g>
	<path class="st1" d="M289.97,101.18l50.61-7.9c4.99-0.78,8.44-5.5,7.66-10.5l-0.51-3.27c-0.78-4.99-5.5-8.44-10.5-7.66l-50.61,7.9
		c-4.99,0.78-8.44,5.5-7.66,10.5l0.51,3.27C280.25,98.51,284.98,101.96,289.97,101.18z"/>
	<path class="st1" d="M286.83,126.7h36.51c4.39,0,7.98-3.59,7.98-7.98v-5.73c0-4.39-3.59-7.98-7.98-7.98h-36.51
		c-4.39,0-7.98,3.59-7.98,7.98v5.73C278.85,123.1,282.44,126.7,286.83,126.7z"/>
	<path class="st1" d="M279.69,152.06l22.08,4.1c3.55,0.66,7-1.71,7.66-5.26l1.56-8.4c0.66-3.55-1.71-7-5.26-7.66l-22.08-4.1
		c-3.55-0.66-7,1.71-7.66,5.26l-1.56,8.4C273.77,147.95,276.13,151.4,279.69,152.06z"/>
	<path class="st1" d="M268.08,176.92l12.69,3.56c3.45,0.97,7.05-1.06,8.02-4.51l2.34-8.35c0.97-3.45-1.06-7.05-4.51-8.02
		l-12.69-3.56c-3.45-0.97-7.05,1.06-8.02,4.51l-2.34,8.35C262.6,172.35,264.63,175.96,268.08,176.92z"/>
</g>
<g>
	<circle class="st2" cx="177.11" cy="114.5" r="96.42"/>
	<circle class="st0" cx="177.11" cy="116.9" r="63.7"/>
	<g>
		<path id="SVGID_x5F_2_x5F__1_" class="st3" d="M249.7,121.25c0,40.29-32.66,72.94-72.94,72.94s-72.94-32.66-72.94-72.94
			s32.66-72.94,72.94-72.94S249.7,80.96,249.7,121.25z"/>
		<text>		<textPath  xlink:href="#SVGID_x5F_2_x5F__1_" startOffset="-51.8962%">
<tspan  class="st0" style="font-family:'Gretaros-Regular'; font-size:23.5722px;">PLUMBERS</tspan>		</textPath>
</text>
		<path id="SVGID_x5F_3_x5F_" class="st3" d="M250.05,131.25c0-40.29-32.66-72.94-72.94-72.94s-72.94,32.66-72.94,72.94
			s32.66,72.94,72.94,72.94S250.05,171.54,250.05,131.25z"/>
		<text>		<textPath  xlink:href="#SVGID_x5F_3_x5F_" startOffset="86.8815%">
<tspan  class="st0" style="font-family:'Gretaros-Regular'; font-size:23.5722px; letter-spacing:75;">UNITE</tspan>		</textPath>
</text>
	</g>
	<path class="st1" d="M212.31,131.95c0,19.54-15.84,35.37-35.37,35.37s-35.37-15.84-35.37-35.37s33.28-75.31,33.28-75.31
		S212.31,112.41,212.31,131.95z"/>
	
		<ellipse transform="matrix(0.6688 -0.7434 0.7434 0.6688 -49.9165 190.6043)" class="st4" cx="188.97" cy="151.33" rx="10.68" ry="7.55"/>
	<g>
		<g>
			<path class="st5" d="M170.92,85.22c-3.39-3.56-6.86-7.02-10.41-10.41c-5.76-5.52-15.03-5.58-20.83-0.26
				c-1.2,1.1-1.28,1.61-0.49,3.01c0.99,0.98,1.66,0.92,3.06-0.27c4.81-4.06,11.55-3.85,16.06,0.56c3.17,3.1,6.28,6.24,9.4,9.4
				c0.09,0.09,0.18,0.18,0.26,0.28c0.13,0.13,0.25,0.26,0.36,0.4c3.33,3.83,3.9,8.83,1.5,13.39c-0.58,1.1-0.69,1.13-1.54,0.28
				c-0.88-0.87-1.75-1.74-2.62-2.62l-0.17-0.17c-4-3.96-7.98-7.95-11.94-11.94c-1.13-1.14-2.39-1.65-3.96-1.34
				c-0.05,0.01-0.1,0.03-0.15,0.05c-0.04,0.01-0.08,0.02-0.12,0.04c-1,0.31-1.81,0.9-2.55,1.65c-1.71,1.76-3.5,3.49-5.22,5.25
				c-0.53,0.55-0.9,0.57-1.41,0c-0.85-0.93-1.77-1.77-2.64-2.68l-0.09-0.09c-0.01-0.01-0.02-0.02-0.03-0.03
				c-1.03-1.01-2.01-2.04-3.05-3.02c-0.6-0.56-0.57-1,0.01-1.53c0.6-0.55,1.19-1.11,1.7-1.74c0.81-1.03,0.72-2.03-0.23-2.8
				c-1.07-0.62-1.96-0.4-2.78,0.51c-0.56,0.64-1.22,1.18-1.78,1.82c-0.45,0.52-0.73,0.42-1.17-0.03c-2.11-2.16-4.23-4.29-6.39-6.4
				c-1.83-1.78-4.13-1.75-5.96,0.04c-2,1.98-4,3.98-5.97,5.98c-1.84,1.86-1.82,4.16,0.02,6.04c0.68,0.69,1.4,1.32,2.16,2.02
				c-1.96,1.95-3.73,3.9-5.69,5.64c-2.99,2.67-3.04,5.36,0,7.87c0.78,0.64,0.82,1.07,0.04,1.83c-5.21,5.12-10.36,10.3-15.5,15.46
				c-2.71,2.72-3.55,5.93-2.25,9.56c2.15,5.99,9.79,7.81,14.43,3.38c3.91-3.73,7.67-7.63,11.51-11.43c0.27-0.27,0.45-0.74,0.99-0.7
				c0.19,2.4,1.12,4.48,2.7,6.26c1.64,1.84,1.61,2.91-0.12,4.64c-7.68,7.68-15.35,15.37-23.03,23.02c-0.89,0.88-1.21,1.75-0.5,2.86
				c0.7,0.79,1.51,0.93,2.43,0.39c0.48-0.27,0.84-0.68,1.21-1.06c7.51-7.51,15.02-15.02,22.53-22.53c0.19-0.19,0.38-0.39,0.57-0.58
				c2.39-2.39,2.37-6.78,0.19-8.71c-0.29-0.25-0.48-0.6-0.73-0.91c-1.44-1.77-1.82-3.78-1.28-5.97c0.32-1.3,0.56-1.36,1.51-0.42
				c1.69,1.68,3.36,3.41,5.09,5.06c1.79,1.72,4.17,1.83,5.94,0.18c2.26-2.1,4.45-4.28,6.55-6.55c1.67-1.8,1.57-4.2-0.14-5.93
				c-3.21-3.24-6.43-6.45-9.66-9.67c-1.12-1.11-1.71-1.16-3.06-0.31c-0.01,0.01-0.01,0.02-0.02,0.03c-0.02,0.03-0.03,0.05-0.05,0.07
				c-0.8,1.19-0.72,1.98,0.35,3.08c1.47,1.52,2.97,3.03,4.5,4.5c0.68,0.64,0.63,1.08-0.02,1.69c-1.69,1.63-3.37,3.31-4.99,5
				c-0.63,0.66-1.05,0.68-1.69,0.02c-2.46-2.53-4.98-4.98-7.45-7.49c-0.05-0.05-0.1-0.1-0.15-0.15c-2.55-2.53-5.09-5.07-7.62-7.61
				c-0.85-0.85-0.85-1.04,0-1.89c1.65-1.68,3.35-3.32,4.98-5.01c0.56-0.58,0.95-0.6,1.5-0.01c1.47,1.53,2.98,3.04,4.5,4.51
				c1.05,1.02,1.75,1.07,3.05,0.31c0.02,0,0.03-0.01,0.05-0.02c0-0.01,0.01-0.01,0.01-0.02c0.86-1.29,0.79-1.98-0.36-3.14
				c-3.1-3.13-6.22-6.22-9.32-9.35c-0.87-0.87-0.86-1.04-0.01-1.88c1.57-1.59,3.16-3.18,4.75-4.75c0.93-0.93,1.05-0.94,1.95-0.03
				c10.64,10.65,21.28,21.26,31.91,31.92c0.01,0.01,0.03,0.03,0.04,0.04c0.03,0.03,0.06,0.06,0.09,0.09
				c0.85,0.84,1.68,1.69,2.54,2.52c0.41,0.41,0.46,0.78,0.02,1.19c-0.25,0.24-0.49,0.49-0.74,0.74
				c-22.34,22.34-44.68,44.68-67.02,67.03c-0.27,0.27-0.54,0.55-0.83,0.81c-1.98,1.83-4.51,1.89-6.53,0.18
				c-0.08-0.07-0.17-0.14-0.25-0.23c-0.02-0.01-0.04-0.03-0.06-0.05c-1.8-2.38-1.66-4.71,0.45-6.84c3.75-3.78,7.53-7.54,11.29-11.3
				c0.38-0.38,0.79-0.74,1.06-1.21c0.54-0.93,0.39-1.74-0.41-2.41c-0.88-0.55-1.73-0.61-2.52,0.18c-4.24,4.25-8.59,8.42-12.72,12.8
				c-4.16,4.42-2.13,11.7,3.64,13.64c0.39,0.13,0.86,0.06,1.16,0.43h2.78c2.61-0.55,4.47-2.18,6.29-4.01
				c23.75-23.79,47.53-47.56,71.3-71.33c0.32-0.33,0.66-0.65,0.98-0.99c1.56-1.7,1.57-3.93,0-5.64c-0.52-0.57-1.11-1.08-1.62-1.65
				c-0.78-0.87-1.65-1.08-2.69-0.54c-0.34,0.12-0.55,0.36-0.68,0.69c-0.02,0.07-0.03,0.14-0.04,0.2c-0.02,0.07-0.04,0.14-0.04,0.21
				c-0.12,0.81,0.18,1.49,0.85,2.08c0.43,0.38,0.85,0.78,1.2,1.23c0.7,0.93-0.25,1.26-0.66,1.79c-0.42,0.52-0.86,0.56-1.34,0.04
				c-0.86-0.9-1.75-1.74-2.61-2.64l-0.07-0.07c-1.98-1.95-3.92-3.93-5.92-5.88c-0.59-0.57-0.7-0.98-0.04-1.59
				c1.01-0.96,1.21-1.05,1.99-0.33c0.49,0.44,0.91,0.95,1.41,1.36c0.97,0.78,1.66,0.72,2.61-0.2c0.66-1.11,0.46-2.04-0.5-2.88
				c-0.61-0.53-1.13-1.17-1.74-1.69c-1.51-1.31-3.67-1.32-5.21-0.12c-0.82,0.64-1.36,2.11-2.34,1.9c-0.89-0.2-1.56-1.4-2.33-2.16
				c-0.14-0.13-0.26-0.29-0.41-0.41c-0.58-0.43-0.62-0.77-0.04-1.31c1.89-1.81,3.76-3.66,5.57-5.58c0.76-0.81,1.2-0.7,1.93,0.04
				c5.38,5.44,10.79,10.82,16.2,16.23c1.35,1.35,2.17,1.32,3.48-0.1C176.46,100.2,176.43,91.01,170.92,85.22z M137.54,115.66
				c-1.9,1.91-3.82,3.8-5.72,5.74c-0.54,0.55-0.96,0.54-1.42-0.03c-0.2-0.24-0.41-0.47-0.66-0.66c-0.65-0.48-0.62-0.84-0.02-1.41
				c1.95-1.86,3.85-3.77,5.73-5.73c0.55-0.56,0.89-0.58,1.34,0.02c0.36,0.49,0.95,0.79,1.16,1.34
				C137.94,115.29,137.72,115.47,137.54,115.66z"/>
			<path class="st6" d="M80.69,184.29c-1.95-2.1-1.9-4.93,0.16-7.01c3.99-4.02,8-8.01,12-12.01c1.08-1.08,1.14-1.66,0.36-2.94
				c1.18-1.03,2.28-2.14,3.32-3.31c1.24,0.76,1.85,0.71,2.86-0.29c7.85-7.84,15.7-15.68,23.53-23.53c2.57-2.58,2.62-6,0.13-8.7
				c-2.08-2.26-2.66-4.79-1.66-7.7c0.28-0.81,0.53-1.07,1.26-0.3c1.75,1.85,3.58,3.63,5.4,5.42c1.92,1.9,4.21,1.91,6.13,0.01
				c1.98-1.96,3.95-3.92,5.9-5.9c1.85-1.87,1.85-4.17-0.01-6.05c-3.13-3.16-6.28-6.29-9.43-9.43c-1.05-1.05-1.53-1.09-2.86-0.36
				c-0.7-0.2-1.03-0.86-1.56-1.28c-0.56-0.69-1.39-1.14-1.73-2.01c0.74-1.37,0.68-1.82-0.44-2.94c-3.14-3.14-6.26-6.3-9.43-9.41
				c-0.73-0.71-0.86-1.18-0.04-1.94c1.83-1.72,3.58-3.51,5.33-5.32c0.57-0.59,0.98-0.69,1.61-0.05
				c10.69,10.72,21.39,21.42,32.09,32.13c0.08,0.08,0.13,0.19,0.2,0.28c-0.14,0.47-0.53,0.75-0.85,1.08
				c-19.39,19.39-38.77,38.78-58.17,58.17c-0.45,0.45-0.83,1.05-1.59,1.05c-1.2-0.37-2.11,0.01-2.96,0.94
				c-1.35,1.47-2.78,2.87-4.23,4.24c-0.84,0.8-1.23,1.64-0.73,2.75c0.02,0.33-0.11,0.61-0.33,0.84c-1.08,1.15-2.21,2.26-3.35,3.36
				C81.36,184.3,81.07,184.55,80.69,184.29z"/>
			<path class="st7" d="M139.2,77.56c1.04,0.62,1.9,0.42,2.81-0.39c4.72-4.19,11.58-4.15,16.16,0.19c3.32,3.16,6.48,6.49,9.71,9.74
				c1.17,1.62,0.82,3.48,0.73,5.25c-0.11,2.11-0.89,4.05-2.03,5.82c-0.26,0.4-0.46,1.06-1.21,0.74c-3.86-3.84-7.74-7.65-11.57-11.52
				c-1.2-1.21-2.52-1.86-4.23-1.66c-0.84-0.32-1.3-1.07-1.9-1.65c-1.77-1.72-2.58-1.73-4.36,0.04c-1.67,1.66-3.33,3.33-5,4.99
				c-0.33,0.32-0.61,0.71-1.08,0.85c-1.21-1.18-2.41-2.37-3.63-3.53c-0.36-0.34-0.38-0.58-0.01-0.93c0.65-0.6,1.26-1.24,1.88-1.87
				c1.13-1.14,1.19-1.68,0.36-3.02C136.95,79.61,138.08,78.59,139.2,77.56z"/>
			<path class="st8" d="M159.81,105.22c-0.17,0.22-0.35,0.44-0.52,0.66c-0.68,1.37-1.56,2.55-3.09,3.05
				c-2.17-2.14-4.34-4.29-6.51-6.42c-0.29-0.28-0.45-0.52-0.03-0.81c0.03-0.02,0.05-0.05,0.08-0.08c2.2-2.16,1.58-2.09,3.64-0.07
				c1.3,1.27,1.64,1.35,3.11,0.56C157.51,103.25,158.39,104.52,159.81,105.22z"/>
			<path class="st9" d="M93.17,171.77c0.62-0.05,0.9-0.56,1.28-0.93c19.41-19.4,38.82-38.81,58.23-58.22
				c0.35-0.35,0.65-0.77,1.13-0.98c0.91,0.88,1.8,1.8,2.75,2.64c0.6,0.52,0.62,0.83,0.02,1.42c-3.91,3.85-7.77,7.74-11.65,11.62
				c-18.91,18.91-37.81,37.82-56.72,56.72c-2.3,2.3-5.08,2.48-7.33,0.51c-0.08-0.07-0.13-0.18-0.2-0.27c1.73-1.2,3.19-2.67,4.4-4.39
				c1.61,0.64,2.62-0.23,3.62-1.34c1.06-1.17,2.17-2.32,3.36-3.35C93.17,174.25,93.67,173.2,93.17,171.77z"/>
			<path class="st10" d="M124.5,98.9c0.68,0.57,1.33,1.17,1.86,1.89c-0.06,0.42-0.39,0.66-0.66,0.93c-2.18,2.19-4.36,4.37-6.55,6.55
				c-0.31,0.31-0.56,0.78-1.13,0.64c-2.71-2.69-5.42-5.38-8.15-8.06c-0.48-0.47-0.39-0.84,0.04-1.27c2-1.99,4-3.97,5.97-5.99
				c0.46-0.47,0.68-0.21,1,0.11c1.58,1.59,3.19,3.15,4.74,4.76C122.5,99.37,123.41,99.59,124.5,98.9z"/>
			<path class="st11" d="M118.02,108.91c2.25-2.21,4.49-4.42,6.75-6.62c0.52-0.51,1.06-1,1.6-1.49c0.56,0.38,1.01,0.87,1.42,1.4
				c-0.74,1.09-0.47,2,0.44,2.87c1.64,1.58,3.22,3.23,4.85,4.82c0.47,0.45,0.49,0.73,0.01,1.2c-2.02,1.97-4.01,3.97-5.99,5.98
				c-0.38,0.39-0.63,0.42-1.02,0.01C123.4,114.33,120.71,111.62,118.02,108.91z"/>
			<path class="st12" d="M137.23,89.97c2.12-2.46,4.48-4.68,6.82-6.9c0.96-0.91,2.02-0.81,3.03,0.1c0.88,0.8,1.78,1.6,2.49,2.57
				c-1.07,0.38-1.92,1.06-2.71,1.87c-1.8,1.85-3.65,3.64-5.45,5.48c-0.43,0.44-0.69,0.54-1.15,0.03
				C139.29,92.03,138.25,91.02,137.23,89.97z"/>
			<path class="st8" d="M165.37,98.92c1.4-0.83,1.78-2.34,2.27-3.69c0.96-2.65,0.98-5.39,0.23-8.11c4.13,3.77,4.95,10.42,1.86,15.04
				c-0.35,0.53-0.57,0.7-1.08,0.15C167.59,101.14,166.47,100.04,165.37,98.92z"/>
			<path class="st13" d="M112.22,114.7c-1.18-1.16-2.35-2.32-3.55-3.46c-0.34-0.32-0.29-0.52,0.01-0.81
				c0.86-0.83,1.7-1.68,2.53-2.54c0.29-0.3,0.48-0.36,0.81-0.02c1.13,1.2,2.3,2.37,3.46,3.55c0.07,0.15,0.08,0.32-0.03,0.43
				C114.43,112.86,113.72,114.23,112.22,114.7z"/>
			<path class="st13" d="M106.48,120.25c-1.13-1.1-2.23-2.23-3.39-3.3c-0.45-0.42-0.31-0.65,0.06-0.99c0.9-0.84,1.71-2.32,2.66-2.41
				c0.95-0.09,1.74,1.5,2.63,2.33c0.44,0.42,0.84,0.89,1.26,1.33c0.16,0.57-0.32,0.82-0.61,1.13c-0.52,0.56-1.06,1.11-1.63,1.61
				C107.19,120.2,106.93,120.59,106.48,120.25z"/>
			<path class="st8" d="M112.22,114.7c1.18-1,2.28-2.07,3.26-3.27c1.12,1.1,2.24,2.2,3.38,3.28c0.36,0.34,0.38,0.57,0.01,0.92
				c-0.84,0.79-1.65,1.61-2.45,2.44c-0.35,0.37-0.57,0.37-0.92,0C114.43,116.94,113.32,115.82,112.22,114.7z"/>
			<path class="st14" d="M100.81,125.85c-1.12-1.1-2.23-2.21-3.38-3.28c-0.38-0.36-0.32-0.6,0.03-0.92c0.78-0.74,1.54-1.5,2.28-2.28
				c0.35-0.37,0.59-0.34,0.93,0.02c1.16,1.22,2.35,2.42,3.52,3.63c-0.63,1.11-1.66,1.85-2.54,2.72
				C101.42,125.96,101.12,126.04,100.81,125.85z"/>
			<path class="st8" d="M106.48,120.25c1.33-0.73,2.24-1.92,3.21-3.03c1.13,1.1,2.25,2.21,3.39,3.29c0.37,0.35,0.36,0.58,0,0.93
				c-0.78,0.74-1.55,1.5-2.29,2.28c-0.34,0.36-0.57,0.37-0.93,0C108.75,122.55,107.61,121.4,106.48,120.25z"/>
			<path class="st8" d="M100.81,125.85c0.98-0.22,1.39-1.15,2.09-1.71c0.44-0.36,0.75-0.88,1.29-1.13c1.1,1.07,2.2,2.15,3.31,3.22
				c0.26,0.25,0.39,0.47,0.03,0.73c-0.06,0.04-0.11,0.11-0.16,0.16c-0.88,0.86-1.71,2.34-2.66,2.42c-0.95,0.08-1.75-1.51-2.64-2.35
				C101.63,126.77,101.23,126.3,100.81,125.85z"/>
			<path class="st15" d="M95.03,131.64c-1.72-1.72-2.07-4.29-0.9-6.35c0.27-0.47,0.45-0.76,0.97-0.2c1.04,1.13,2.14,2.21,3.21,3.31
				C98.32,129.48,96.13,131.66,95.03,131.64z"/>
			<path class="st16" d="M95.03,131.64c1.39-0.78,2.46-1.88,3.28-3.25c1.22,1.32,2.44,2.63,3.65,3.94
				C99.88,133.93,96.93,133.68,95.03,131.64z"/>
			<path class="st17" d="M156.19,108.94c1.18-0.86,2.14-1.96,3.09-3.05c-0.32,1.13,0.27,1.86,1.02,2.62c1.97,2,2.14,1.26-0.13,3.61
				c-0.37,0.38-0.6,0.31-0.93-0.03C158.24,111.02,157.21,109.99,156.19,108.94z"/>
			<path class="st18" d="M93.17,171.77c0.84,1.25,0.79,1.89-0.25,2.94c-1.63,1.64-3.27,3.28-4.91,4.91
				c-1.1,1.09-1.62,1.13-2.92,0.27c-0.61-1.01-0.43-1.86,0.41-2.68c1.69-1.63,3.35-3.29,4.98-4.98
				C91.3,171.38,92.16,171.24,93.17,171.77z"/>
		</g>
		<g>
			<path class="st5" d="M178.56,106.93c1.3,1.42,2.12,1.45,3.48,0.1c5.41-5.41,10.82-10.79,16.2-16.23
				c0.73-0.74,1.18-0.85,1.93-0.04c1.8,1.91,3.67,3.76,5.57,5.58c0.58,0.55,0.54,0.89-0.04,1.31c-0.15,0.12-0.27,0.28-0.41,0.41
				c-0.77,0.76-1.44,1.96-2.33,2.16c-0.98,0.21-1.52-1.26-2.34-1.9c-1.53-1.2-3.69-1.19-5.21,0.12c-0.62,0.53-1.14,1.17-1.74,1.69
				c-0.96,0.84-1.16,1.77-0.5,2.88c0.95,0.92,1.64,0.98,2.61,0.2c0.51-0.42,0.93-0.93,1.41-1.36c0.78-0.72,0.99-0.63,1.99,0.33
				c0.66,0.62,0.55,1.03-0.04,1.59c-1.99,1.94-3.93,3.92-5.92,5.88l-0.07,0.07c-0.86,0.9-1.75,1.74-2.61,2.64
				c-0.49,0.52-0.93,0.48-1.34-0.04c-0.41-0.53-1.35-0.87-0.66-1.79c0.36-0.46,0.78-0.86,1.2-1.23c0.67-0.59,0.97-1.27,0.85-2.08
				c0-0.07-0.02-0.14-0.04-0.21c-0.01-0.06-0.02-0.13-0.04-0.2c-0.13-0.33-0.34-0.57-0.68-0.69c-1.04-0.54-1.91-0.33-2.69,0.54
				c-0.52,0.58-1.11,1.09-1.62,1.65c-1.57,1.7-1.56,3.93,0,5.64c0.32,0.34,0.66,0.66,0.98,0.99c23.77,23.77,47.55,47.54,71.3,71.33
				c1.82,1.83,3.68,3.47,6.29,4.01h2.78c0.3-0.37,0.77-0.3,1.16-0.43c5.78-1.94,7.81-9.22,3.64-13.64
				c-4.12-4.37-8.47-8.54-12.72-12.8c-0.79-0.79-1.64-0.73-2.52-0.18c-0.8,0.67-0.95,1.48-0.41,2.41c0.27,0.48,0.68,0.84,1.06,1.21
				c3.76,3.76,7.54,7.52,11.29,11.3c2.11,2.13,2.25,4.46,0.45,6.84c-0.02,0.02-0.04,0.04-0.06,0.05c-0.08,0.09-0.17,0.16-0.25,0.23
				c-2.02,1.71-4.55,1.65-6.53-0.18c-0.29-0.26-0.56-0.54-0.83-0.81c-22.34-22.35-44.68-44.69-67.02-67.03
				c-0.25-0.25-0.49-0.5-0.74-0.74c-0.44-0.41-0.39-0.78,0.02-1.19c0.86-0.83,1.69-1.68,2.54-2.52c0.03-0.03,0.06-0.06,0.09-0.09
				c0.01-0.01,0.03-0.03,0.04-0.04c10.63-10.66,21.27-21.27,31.91-31.92c0.91-0.91,1.03-0.9,1.95,0.03
				c1.59,1.57,3.18,3.16,4.75,4.75c0.85,0.85,0.86,1.02-0.01,1.88c-3.1,3.13-6.22,6.22-9.32,9.35c-1.15,1.16-1.21,1.84-0.36,3.14
				c0,0.01,0.01,0.01,0.01,0.02c0.02,0.01,0.03,0.02,0.05,0.02c1.29,0.76,2,0.71,3.05-0.31c1.52-1.47,3.03-2.98,4.5-4.51
				c0.56-0.59,0.95-0.57,1.5,0.01c1.63,1.69,3.33,3.33,4.98,5.01c0.85,0.86,0.85,1.05,0,1.89c-2.53,2.54-5.07,5.08-7.62,7.61
				c-0.05,0.05-0.1,0.1-0.15,0.15c-2.47,2.51-4.99,4.96-7.45,7.49c-0.65,0.66-1.07,0.64-1.69-0.02c-1.62-1.69-3.3-3.37-4.99-5
				c-0.65-0.62-0.7-1.06-0.02-1.69c1.53-1.47,3.03-2.98,4.5-4.5c1.07-1.1,1.15-1.88,0.35-3.08c-0.02-0.02-0.03-0.04-0.05-0.07
				c-0.01-0.01-0.01-0.02-0.02-0.03c-1.34-0.85-1.94-0.8-3.06,0.31c-3.23,3.22-6.45,6.43-9.66,9.67c-1.71,1.72-1.81,4.12-0.14,5.93
				c2.1,2.27,4.29,4.45,6.55,6.55c1.77,1.65,4.15,1.54,5.94-0.18c1.73-1.65,3.4-3.38,5.09-5.06c0.96-0.95,1.19-0.89,1.51,0.42
				c0.54,2.19,0.16,4.2-1.28,5.97c-0.25,0.31-0.44,0.66-0.73,0.91c-2.18,1.93-2.2,6.32,0.19,8.71c0.19,0.19,0.38,0.39,0.57,0.58
				c7.51,7.51,15.02,15.02,22.53,22.53c0.38,0.38,0.74,0.79,1.21,1.06c0.92,0.54,1.73,0.4,2.43-0.39c0.72-1.11,0.39-1.98-0.5-2.86
				c-7.69-7.66-15.36-15.35-23.03-23.02c-1.73-1.73-1.76-2.8-0.12-4.64c1.58-1.78,2.51-3.86,2.7-6.26c0.54-0.04,0.72,0.43,0.99,0.7
				c3.84,3.8,7.6,7.7,11.51,11.43c4.64,4.43,12.28,2.62,14.43-3.38c1.29-3.62,0.46-6.84-2.25-9.56c-5.15-5.17-10.3-10.35-15.5-15.46
				c-0.78-0.77-0.74-1.19,0.04-1.83c3.04-2.51,2.99-5.2,0-7.87c-1.95-1.73-3.72-3.68-5.69-5.64c0.76-0.7,1.48-1.33,2.16-2.02
				c1.84-1.88,1.86-4.18,0.02-6.04c-1.97-2-3.97-4-5.97-5.98c-1.83-1.79-4.13-1.82-5.96-0.04c-2.16,2.11-4.28,4.24-6.39,6.4
				c-0.44,0.45-0.72,0.55-1.17,0.03c-0.56-0.65-1.22-1.18-1.78-1.82c-0.82-0.91-1.71-1.13-2.78-0.51c-0.95,0.77-1.04,1.77-0.23,2.8
				c0.51,0.64,1.11,1.19,1.7,1.74c0.58,0.54,0.61,0.98,0.01,1.53c-1.04,0.98-2.02,2.01-3.05,3.02c-0.01,0.01-0.02,0.02-0.03,0.03
				l-0.09,0.09c-0.87,0.91-1.79,1.75-2.64,2.68c-0.52,0.57-0.89,0.55-1.41,0c-1.72-1.76-3.51-3.49-5.22-5.25
				c-0.74-0.76-1.55-1.34-2.55-1.65c-0.04-0.02-0.08-0.03-0.12-0.04c-0.05-0.02-0.1-0.04-0.15-0.05c-1.57-0.31-2.84,0.21-3.96,1.34
				c-3.96,3.99-7.94,7.98-11.94,11.94l-0.17,0.17c-0.87,0.88-1.74,1.75-2.62,2.62c-0.86,0.85-0.97,0.82-1.54-0.28
				c-2.4-4.56-1.82-9.56,1.5-13.39c0.11-0.14,0.23-0.27,0.36-0.4c0.08-0.1,0.17-0.19,0.26-0.28c3.12-3.16,6.23-6.3,9.4-9.4
				c4.51-4.41,11.25-4.62,16.06-0.56c1.39,1.18,2.07,1.24,3.06,0.27c0.8-1.39,0.72-1.91-0.49-3.01c-5.81-5.32-15.08-5.26-20.83,0.26
				c-3.55,3.39-7.02,6.85-10.41,10.41C173.23,91.89,173.2,101.09,178.56,106.93z M211.71,115.81c0.21-0.56,0.8-0.86,1.16-1.34
				c0.46-0.6,0.8-0.58,1.34-0.02c1.87,1.95,3.77,3.86,5.73,5.73c0.6,0.58,0.63,0.94-0.02,1.41c-0.25,0.19-0.46,0.42-0.66,0.66
				c-0.47,0.57-0.89,0.58-1.42,0.03c-1.89-1.93-3.81-3.82-5.72-5.74C211.93,116.35,211.71,116.17,211.71,115.81z"/>
			<path class="st6" d="M268.97,185.17c1.95-2.1,1.9-4.93-0.16-7.01c-3.99-4.02-8-8.01-12-12.01c-1.08-1.08-1.14-1.66-0.36-2.94
				c-1.18-1.03-2.28-2.14-3.32-3.31c-1.24,0.76-1.85,0.71-2.86-0.29c-7.85-7.84-15.7-15.68-23.53-23.53c-2.57-2.58-2.62-6-0.13-8.7
				c2.08-2.26,2.66-4.79,1.66-7.7c-0.28-0.81-0.53-1.07-1.26-0.3c-1.75,1.85-3.58,3.63-5.4,5.42c-1.92,1.9-4.21,1.91-6.13,0.01
				c-1.98-1.96-3.95-3.92-5.9-5.9c-1.85-1.87-1.85-4.17,0.01-6.05c3.13-3.16,6.28-6.29,9.43-9.43c1.05-1.05,1.53-1.09,2.86-0.36
				c0.7-0.2,1.03-0.86,1.56-1.28c0.56-0.69,1.39-1.14,1.73-2.01c-0.74-1.37-0.68-1.82,0.44-2.94c3.14-3.14,6.26-6.3,9.43-9.41
				c0.73-0.71,0.86-1.18,0.04-1.94c-1.83-1.72-3.58-3.51-5.33-5.32c-0.57-0.59-0.98-0.69-1.61-0.05
				c-10.69,10.72-21.39,21.42-32.09,32.13c-0.08,0.08-0.13,0.19-0.2,0.28c0.14,0.47,0.53,0.75,0.85,1.08
				c19.39,19.39,38.77,38.78,58.17,58.17c0.45,0.45,0.83,1.05,1.59,1.05c1.2-0.37,2.11,0.01,2.96,0.94
				c1.35,1.47,2.78,2.87,4.23,4.24c0.84,0.8,1.23,1.64,0.73,2.75c-0.02,0.33,0.11,0.61,0.33,0.84c1.08,1.15,2.21,2.26,3.35,3.36
				C268.3,185.19,268.58,185.43,268.97,185.17z"/>
			<path class="st7" d="M210.46,78.45c-1.04,0.62-1.9,0.42-2.81-0.39c-4.72-4.19-11.58-4.15-16.16,0.19
				c-3.32,3.16-6.48,6.49-9.71,9.74c-1.17,1.62-0.82,3.48-0.73,5.25c0.11,2.11,0.89,4.05,2.03,5.82c0.26,0.4,0.46,1.06,1.21,0.74
				c3.86-3.84,7.74-7.65,11.57-11.52c1.2-1.21,2.52-1.86,4.23-1.66c0.84-0.32,1.3-1.07,1.9-1.65c1.77-1.72,2.58-1.73,4.36,0.04
				c1.67,1.66,3.33,3.33,5,4.99c0.33,0.32,0.61,0.71,1.08,0.85c1.21-1.18,2.41-2.37,3.63-3.53c0.36-0.34,0.38-0.58,0.01-0.93
				c-0.65-0.6-1.26-1.24-1.88-1.87c-1.13-1.14-1.19-1.68-0.36-3.02C212.7,80.49,211.58,79.47,210.46,78.45z"/>
			<path class="st8" d="M189.85,106.11c0.17,0.22,0.35,0.44,0.52,0.66c0.68,1.37,1.56,2.55,3.09,3.05c2.17-2.14,4.34-4.29,6.51-6.42
				c0.29-0.28,0.45-0.52,0.03-0.81c-0.03-0.02-0.05-0.05-0.08-0.08c-2.2-2.16-1.58-2.09-3.64-0.07c-1.3,1.27-1.64,1.35-3.11,0.56
				C192.15,104.13,191.26,105.4,189.85,106.11z"/>
			<path class="st9" d="M256.48,172.66c-0.62-0.05-0.9-0.56-1.28-0.93c-19.41-19.4-38.82-38.81-58.23-58.22
				c-0.35-0.35-0.65-0.77-1.13-0.98c-0.91,0.88-1.8,1.8-2.75,2.64c-0.6,0.52-0.62,0.83-0.02,1.42c3.91,3.85,7.77,7.74,11.65,11.62
				c18.91,18.91,37.81,37.82,56.72,56.72c2.3,2.3,5.08,2.48,7.33,0.51c0.08-0.07,0.13-0.18,0.2-0.27c-1.73-1.2-3.19-2.67-4.4-4.39
				c-1.61,0.64-2.62-0.23-3.62-1.34c-1.06-1.17-2.17-2.32-3.36-3.35C256.48,175.13,255.98,174.08,256.48,172.66z"/>
			<path class="st10" d="M225.16,99.78c-0.68,0.57-1.33,1.17-1.86,1.89c0.06,0.42,0.39,0.66,0.66,0.93
				c2.18,2.19,4.36,4.37,6.55,6.55c0.31,0.31,0.56,0.78,1.13,0.64c2.71-2.69,5.42-5.38,8.15-8.06c0.48-0.47,0.39-0.84-0.04-1.27
				c-2-1.99-4-3.97-5.97-5.99c-0.46-0.47-0.68-0.21-1,0.11c-1.58,1.59-3.19,3.15-4.74,4.76
				C227.16,100.26,226.25,100.48,225.16,99.78z"/>
			<path class="st11" d="M231.64,109.79c-2.25-2.21-4.49-4.42-6.75-6.62c-0.52-0.51-1.06-1-1.6-1.49c-0.56,0.38-1.01,0.87-1.42,1.4
				c0.74,1.09,0.47,2-0.44,2.87c-1.64,1.58-3.22,3.23-4.85,4.82c-0.47,0.45-0.49,0.73-0.01,1.2c2.02,1.97,4.01,3.97,5.99,5.98
				c0.38,0.39,0.63,0.42,1.02,0.01C226.25,115.21,228.95,112.51,231.64,109.79z"/>
			<path class="st12" d="M212.42,90.85c-2.12-2.46-4.48-4.68-6.82-6.9c-0.96-0.91-2.02-0.81-3.03,0.1c-0.88,0.8-1.78,1.6-2.49,2.57
				c1.07,0.38,1.92,1.06,2.71,1.87c1.8,1.85,3.65,3.64,5.45,5.48c0.43,0.44,0.69,0.54,1.15,0.03
				C210.36,92.92,211.41,91.9,212.42,90.85z"/>
			<path class="st8" d="M184.29,99.8c-1.4-0.83-1.78-2.34-2.27-3.69c-0.96-2.65-0.98-5.39-0.23-8.11
				c-4.13,3.77-4.95,10.42-1.86,15.04c0.35,0.53,0.57,0.7,1.08,0.15C182.06,102.03,183.19,100.93,184.29,99.8z"/>
			<path class="st13" d="M237.43,115.58c1.18-1.16,2.35-2.32,3.55-3.46c0.34-0.32,0.29-0.52-0.01-0.81
				c-0.86-0.83-1.7-1.68-2.53-2.54c-0.29-0.3-0.48-0.36-0.81-0.02c-1.13,1.2-2.3,2.37-3.46,3.55c-0.07,0.15-0.08,0.32,0.03,0.43
				C235.23,113.75,235.94,115.11,237.43,115.58z"/>
			<path class="st13" d="M243.18,121.13c1.13-1.1,2.23-2.23,3.39-3.3c0.45-0.42,0.31-0.65-0.06-0.99c-0.9-0.84-1.71-2.32-2.66-2.41
				c-0.95-0.09-1.74,1.5-2.63,2.33c-0.44,0.42-0.84,0.89-1.26,1.33c-0.16,0.57,0.32,0.82,0.61,1.13c0.52,0.56,1.06,1.11,1.63,1.61
				C242.47,121.08,242.73,121.47,243.18,121.13z"/>
			<path class="st8" d="M237.43,115.58c-1.18-1-2.28-2.07-3.26-3.27c-1.12,1.1-2.24,2.2-3.38,3.28c-0.36,0.34-0.38,0.57-0.01,0.92
				c0.84,0.79,1.65,1.61,2.45,2.44c0.35,0.37,0.57,0.37,0.92,0C235.22,117.82,236.34,116.71,237.43,115.58z"/>
			<path class="st14" d="M248.85,126.74c1.12-1.1,2.23-2.21,3.38-3.28c0.38-0.36,0.32-0.6-0.03-0.92c-0.78-0.74-1.54-1.5-2.28-2.28
				c-0.35-0.37-0.59-0.34-0.93,0.02c-1.16,1.22-2.35,2.42-3.52,3.63c0.63,1.11,1.66,1.85,2.54,2.72
				C248.24,126.85,248.54,126.92,248.85,126.74z"/>
			<path class="st8" d="M243.18,121.13c-1.33-0.73-2.24-1.92-3.21-3.03c-1.13,1.1-2.25,2.21-3.39,3.29c-0.37,0.35-0.36,0.58,0,0.93
				c0.78,0.74,1.55,1.5,2.29,2.28c0.34,0.36,0.57,0.37,0.93,0C240.91,123.43,242.05,122.29,243.18,121.13z"/>
			<path class="st8" d="M248.85,126.74c-0.98-0.22-1.39-1.15-2.09-1.71c-0.44-0.36-0.75-0.88-1.29-1.13
				c-1.1,1.07-2.2,2.15-3.31,3.22c-0.26,0.25-0.39,0.47-0.03,0.73c0.06,0.04,0.11,0.11,0.16,0.16c0.88,0.86,1.71,2.34,2.66,2.42
				c0.95,0.08,1.75-1.51,2.64-2.35C248.03,127.65,248.43,127.18,248.85,126.74z"/>
			<path class="st15" d="M254.63,132.53c1.72-1.72,2.07-4.29,0.9-6.35c-0.27-0.47-0.45-0.76-0.97-0.2
				c-1.04,1.13-2.14,2.21-3.21,3.31C251.33,130.37,253.53,132.54,254.63,132.53z"/>
			<path class="st16" d="M254.63,132.53c-1.39-0.78-2.46-1.88-3.28-3.25c-1.22,1.32-2.44,2.63-3.65,3.94
				C249.77,134.81,252.72,134.56,254.63,132.53z"/>
			<path class="st17" d="M193.46,109.82c-1.18-0.86-2.14-1.96-3.09-3.05c0.32,1.13-0.27,1.86-1.02,2.62c-1.97,2-2.14,1.26,0.13,3.61
				c0.37,0.38,0.6,0.31,0.93-0.03C191.42,111.91,192.44,110.87,193.46,109.82z"/>
			<path class="st18" d="M256.48,172.66c-0.84,1.25-0.79,1.89,0.25,2.94c1.63,1.64,3.27,3.28,4.91,4.91
				c1.1,1.09,1.62,1.13,2.92,0.27c0.61-1.01,0.43-1.86-0.41-2.68c-1.69-1.63-3.35-3.29-4.98-4.98
				C258.35,172.26,257.5,172.12,256.48,172.66z"/>
		</g>
	</g>
</g>
</svg>
